#!OML:ASF F:\VICON\USERDATA\INSTALL\rory3\rory3.ASF
:FULLY-SPECIFIED
:DEGREES
131
root -0.849467 14.976 0.680608 18.7532 -1.80732 -3.4204
lowerback -1.80803 -0.366135 2.54346
upperback -4.76196 -0.422927 1.77005
thorax -3.8967 -0.269979 0.407485
lowerneck -20.4204 -3.2827 -5.01989
upperneck 13.834 -3.45924 2.44243
head 7.73765 -1.67465 1.19202
rclavicle 6.43565e-015 1.03368e-014
rhumerus -39.1718 12.9836 -92.8272
rradius 48.3541
rwrist 4.64845
rhand -20.246 -51.0699
rfingers 7.12502
rthumb 6.10233 -80.962
lclavicle 6.43565e-015 1.03368e-014
lhumerus -37.8725 -12.3776 92.2362
lradius 43.4953
lwrist 12.1588
lhand -33.0567 -27.5551
lfingers 7.12502
lthumb -6.26896 2.33219
rfemur -55.5322 8.10948 21.2726
rtibia 75.7632
rfoot -31.82 -17.6286
rtoes -12.418
lfemur -55.3748 0.215832 -15.6345
ltibia 76.0081
lfoot -34.0436 11.2464
ltoes -14.0336
132
root -0.854256 14.8479 0.658459 19.1236 -1.92967 -3.47166
lowerback -1.59418 -0.297886 2.42689
upperback -4.76236 -0.323052 1.80201
thorax -4.01564 -0.21591 0.505528
lowerneck -18.7636 -2.99901 -6.11133
upperneck 11.3843 -3.12678 4.18663
head 6.69213 -1.41053 1.99831
rclavicle -7.40473e-015 5.56597e-015
rhumerus -39.0164 13.0136 -92.6478
rradius 49.0532
rwrist 4.75257
rhand -20.7717 -50.0174
rfingers 7.12502
rthumb 5.59473 -79.9235
lclavicle -7.40473e-015 5.56597e-015
lhumerus -37.6013 -12.1844 92.0378
lradius 44.091
lwrist 12.0515
lhand -32.9976 -26.4411
lfingers 7.12502
lthumb -6.21193 3.44787
rfemur -57.0706 8.29914 21.2861
rtibia 77.4421
rfoot -32.0626 -17.962
rtoes -12.7679
lfemur -56.9264 0.354233 -15.5825
ltibia 77.8012
lfoot -34.2936 11.4148
ltoes -14.1957
133
root -0.856561 14.7357 0.647721 19.4308 -1.87649 -3.37699
lowerback -1.44294 -0.26995 2.29099
upperback -4.74397 -0.281412 1.80743
thorax -4.08048 -0.190156 0.587138
lowerneck -18.4581 -2.99972 -6.47
upperneck 10.243 -3.1075 4.71786
head 6.28749 -1.37028 2.2312
rclavicle 2.50966e-015 1.2921e-015
rhumerus -39.1103 12.8895 -92.3609
rradius 50.0693
rwrist 5.08606
rhand -21.0328 -49.6201
rfingers 7.12502
rthumb 5.34271 -79.5328
lclavicle 2.50966e-015 1.2921e-015
lhumerus -37.4308 -12.0475 91.9226
lradius 44.7241
lwrist 11.7627
lhand -33.5193 -27.5895
lfingers 7.12502
lthumb -6.71551 2.28403
rfemur -58.3309 8.20961 21.2313
rtibia 79.0032
rfoot -32.4225 -18.3194
rtoes -13.0053
lfemur -58.1996 0.268322 -15.6514
ltibia 79.3964
lfoot -34.5094 11.6251
ltoes -14.3279
134
root -0.856295 14.6263 0.640267 19.7081 -1.84019 -3.23043
lowerback -1.37518 -0.258647 2.14937
upperback -4.67002 -0.267456 1.79996
thorax -4.04042 -0.177432 0.658059
lowerneck -18.6801 -3.07832 -6.56092
upperneck 9.58096 -3.17332 4.82842
head 6.11797 -1.3914 2.27183
rclavicle 1.46604e-014 -1.5704e-014
rhumerus -39.0037 12.8388 -92.0536
rradius 51.0492
rwrist 5.33469
rhand -20.7487 -50.0979
rfingers 7.12502
rthumb 5.61702 -80.0035
lclavicle 1.46604e-014 -1.5704e-014
lhumerus -37.1518 -11.8604 91.7762
lradius 45.2421
lwrist 11.6731
lhand -33.7661 -28.9363
lfingers 7.12502
lthumb -6.95383 0.929493
rfemur -59.4796 8.09627 21.1048
rtibia 80.5097
rfoot -32.8511 -18.6866
rtoes -13.2433
lfemur -59.3834 0.120641 -15.8035
ltibia 80.8719
lfoot -34.647 11.9806
ltoes -14.956
135
root -0.856458 14.5181 0.632412 19.9924 -1.9005 -3.05202
lowerback -1.20789 -0.267673 1.91483
upperback -4.64898 -0.277935 1.77685
thorax -4.11147 -0.174691 0.766586
lowerneck -18.9236 -3.13638 -6.54501
upperneck 8.95336 -3.22985 4.88878
head 5.96006 -1.4081 2.28022
rclavicle -1.25234e-014 2.20651e-014
rhumerus -38.6791 12.8609 -91.822
rradius 51.6465
rwrist 5.69207
rhand -20.6435 -50.0517
rfingers 7.12502
rthumb 5.71854 -79.9545
lclavicle -1.25234e-014 2.20651e-014
lhumerus -36.8725 -11.5414 91.5433
lradius 45.6083
lwrist 11.5554
lhand -33.451 -29.9102
lfingers 7.12502
lthumb -6.64957 -0.0346256
rfemur -60.8064 8.13772 20.8804
rtibia 81.9919
rfoot -33.1927 -18.9034
rtoes -13.2014
lfemur -60.5527 0.0694288 -16.0293
ltibia 82.2404
lfoot -34.7458 12.2803
ltoes -15.4282
136
root -0.850775 14.4223 0.628189 20.3205 -1.84292 -2.92299
lowerback -0.932565 -0.334675 1.81596
upperback -4.72859 -0.358344 1.77996
thorax -4.34995 -0.212309 0.830189
lowerneck -19.0955 -3.13705 -6.56907
upperneck 8.34432 -3.21183 5.00712
head 5.7943 -1.38669 2.32256
rclavicle 1.07592e-014 -4.57205e-015
rhumerus -38.599 12.8953 -91.6125
rradius 52.3673
rwrist 6.3855
rhand -20.7619 -49.4424
rfingers 7.12502
rthumb 5.60423 -79.3483
lclavicle 1.07592e-014 -4.57205e-015
lhumerus -36.7716 -11.0811 91.2895
lradius 46.0289
lwrist 11.0465
lhand -33.3957 -29.8644
lfingers 7.12502
lthumb -6.59626 0.0128683
rfemur -62.2677 8.06825 20.728
rtibia 83.4399
rfoot -33.2956 -19.0776
rtoes -13.1761
lfemur -61.7392 -0.0847408 -16.1878
ltibia 83.5724
lfoot -34.838 12.4969
ltoes -15.2312
137
root -0.84181 14.3614 0.622079 20.6368 -1.76793 -2.76146
lowerback -0.703516 -0.427944 1.72965
upperback -4.75482 -0.477842 1.76559
thorax -4.50651 -0.269593 0.869781
lowerneck -19.3474 -3.04864 -6.36708
upperneck 7.73499 -3.0973 4.90735
head 5.62793 -1.32742 2.26837
rclavicle 1.54058e-015 -1.55052e-014
rhumerus -38.4537 13.0274 -91.4399
rradius 53.4208
rwrist 6.43133
rhand -20.3931 -50.6898
rfingers 7.12502
rthumb 5.96032 -80.5859
lclavicle 1.54058e-015 -1.55052e-014
lhumerus -36.6208 -10.6256 90.9707
lradius 46.6244
lwrist 10.5248
lhand -33.4313 -29.133
lfingers 7.12502
lthumb -6.63055 0.743239
rfemur -63.1674 7.89485 20.5568
rtibia 84.5097
rfoot -33.1633 -19.5047
rtoes -12.9528
lfemur -62.7143 -0.329353 -16.3899
ltibia 84.6815
lfoot -34.8039 12.9026
ltoes -15.6426
138
root -0.838898 14.2448 0.60297 21.0382 -1.74622 -2.57938
lowerback -0.553682 -0.472235 1.53077
upperback -4.75122 -0.538049 1.73795
thorax -4.58567 -0.292558 0.956104
lowerneck -19.6615 -2.99159 -6.0853
upperneck 7.04442 -3.03353 4.74932
head 5.44635 -1.29449 2.17728
rclavicle -7.28049e-015 -2.38542e-015
rhumerus -37.9502 13.1237 -91.2399
rradius 54.8973
rwrist 4.95752
rhand -18.6045 -54.2817
rfingers 7.12502
rthumb 7.6869 -84.122
lclavicle -7.28049e-015 -2.38542e-015
lhumerus -36.2457 -10.4213 90.6865
lradius 47.2122
lwrist 10.4735
lhand -33.4266 -29.176
lfingers 7.12502
lthumb -6.62602 0.70036
rfemur -64.1006 7.80131 20.3284
rtibia 85.6807
rfoot -33.1763 -19.8672
rtoes -11.4807
lfemur -64.1281 -0.457216 -16.6023
ltibia 86.0617
lfoot -34.8396 13.161
ltoes -16.307
